<?xml version="1.0" encoding="UTF-8"?>
<svg id="Layer_2" data-name="Layer 2" xmlns="http://www.w3.org/2000/svg" xmlns:xlink="http://www.w3.org/1999/xlink" viewBox="0 0 121.29 146.86">
  <defs>
    <style>
      .cls-1 {
        fill: #009245;
      }

      .cls-2 {
        fill: #8cc63f;
      }

      .cls-3 {
        clip-path: url(#clippath-2);
      }

      .cls-4 {
        stroke: #8cc63f;
      }

      .cls-4, .cls-5 {
        stroke-miterlimit: 10;
      }

      .cls-4, .cls-6 {
        fill: #22b573;
      }

      .cls-5 {
        fill: #006837;
        font-family: PatrickHand-Regular, 'Patrick Hand';
        font-size: 10px;
        opacity: .99;
        stroke: #39b54a;
        stroke-width: .25px;
      }

      .cls-7 {
        clip-path: url(#clippath-1);
      }

      .cls-8 {
        clip-path: url(#clippath-4);
      }

      .cls-9 {
        fill: #39b54a;
      }

      .cls-10 {
        clip-path: url(#clippath);
      }

      .cls-11 {
        fill: none;
      }

      .cls-12 {
        clip-path: url(#clippath-3);
      }
    </style>
    <clipPath id="clippath">
      <rect class="cls-11" x="27.65" y="13.61" width="68" height="55"/>
    </clipPath>
    <clipPath id="clippath-1">
      <rect class="cls-11" x="25.65" y="72.61" width="70" height="17"/>
    </clipPath>
    <clipPath id="clippath-2">
      <ellipse class="cls-11" cx="61.15" cy="74.36" rx="33" ry="13.25"/>
    </clipPath>
    <clipPath id="clippath-3">
      <rect class="cls-11" x="30.65" y="73.61" width="60" height="15"/>
    </clipPath>
    <clipPath id="clippath-4">
      <circle class="cls-11" cx="61.65" cy="47.61" r="32"/>
    </clipPath>
  </defs>
  <g id="Logo0">
    <ellipse class="cls-2" cx="61.65" cy="47.61" rx="25" ry="32"/>
    <g class="cls-10">
      <g>
        <circle class="cls-9" cx="61.65" cy="47.61" r="31.5"/>
        <path class="cls-2" d="m61.65,16.61c17.09,0,31,13.91,31,31s-13.91,31-31,31-31-13.91-31-31,13.91-31,31-31m0-1c-17.67,0-32,14.33-32,32s14.33,32,32,32,32-14.33,32-32S79.32,15.61,61.65,15.61h0Z"/>
      </g>
    </g>
    <g class="cls-7">
      <ellipse class="cls-2" cx="60.65" cy="78.11" rx="34" ry="10.5"/>
    </g>
    <g class="cls-3">
      <polygon class="cls-4" points="30.65 146.36 90.65 146.36 120.65 109.74 90.65 73.11 30.65 73.11 .65 109.74 30.65 146.36"/>
    </g>
    <g class="cls-12">
      <ellipse class="cls-1" cx="61.15" cy="75.11" rx="25" ry="5.5"/>
    </g>
    <g class="cls-8">
      <g>
        <polygon class="cls-6" points="48.21 68.24 4.71 68.24 39.9 42.68 26.46 1.31 61.65 26.88 96.84 1.31 83.39 42.68 118.58 68.24 75.09 68.24 61.65 109.61 48.21 68.24"/>
        <path class="cls-1" d="m95.88,2.62l-12.85,39.56-.22.69.59.43,33.65,24.45h-42.32l-.22.69-12.85,39.56-12.85-39.56-.22-.69H6.25l33.65-24.45.59-.43-.22-.69L27.41,2.62l33.65,24.45.59.43.59-.43L95.88,2.62m1.9-2.62l-36.14,26.26L25.51,0l13.8,42.49L3.17,68.74h44.67l13.8,42.49,13.8-42.49h44.67l-36.14-26.26L97.79,0h0Z"/>
      </g>
    </g>
    <text class="cls-5" transform="translate(29.07 78.58) rotate(41.07)"><tspan x="0" y="0">4</tspan></text>
    <text class="cls-5" transform="translate(32.83 81.64) rotate(26.06)"><tspan x="0" y="0">2</tspan></text>
    <text class="cls-5" transform="translate(37.58 83.88) rotate(18.06)"><tspan x="0" y="0">0</tspan></text>
    <text class="cls-5" transform="translate(42.18 85.34) rotate(13.15)"><tspan x="0" y="0">F</tspan></text>
    <text class="cls-5" transform="translate(46.12 86.27) rotate(9.06)"><tspan x="0" y="0">A</tspan></text>
    <text class="cls-5" transform="translate(51.23 87.08) rotate(4.9)"><tspan x="0" y="0">C</tspan></text>
    <text class="cls-5" transform="translate(56.97 87.54) rotate(1.21)"><tspan x="0" y="0">T</tspan></text>
    <text class="cls-5" transform="translate(61.86 87.66) rotate(-2.33)"><tspan x="0" y="0">O</tspan></text>
    <text class="cls-5" transform="translate(67.7 87.4) rotate(-6.09)"><tspan x="0" y="0">R</tspan></text>
    <text class="cls-5" transform="translate(72.49 86.89) rotate(-10.02)"><tspan x="0" y="0">A</tspan></text>
    <text class="cls-5" transform="translate(77.67 85.98) rotate(-15.32)"><tspan x="0" y="0">U</tspan></text>
    <text class="cls-5" transform="translate(83.47 84.35) rotate(-22.69)"><tspan x="0" y="0">T</tspan></text>
    <text class="cls-5" transform="translate(88.64 82.15) rotate(-35.27)"><tspan x="0" y="0">H</tspan></text>
  </g>
</svg>